<svg width="36" height="30" viewBox="0 0 36 30" fill="none" xmlns="http://www.w3.org/2000/svg">
<path d="M31.3647 12.3529V12.7529H31.7647H33.5294C33.8914 12.7529 34.2385 12.8967 34.4944 13.1527C34.7503 13.4086 34.8941 13.7557 34.8941 14.1176C34.8941 14.4796 34.7503 14.8267 34.4944 15.0826C34.2385 15.3386 33.8914 15.4824 33.5294 15.4824H31.7647H31.3647V15.8824V17.6471C31.3647 18.009 31.2209 18.3561 30.965 18.6121C30.7091 18.868 30.3619 19.0118 30 19.0118C29.6381 19.0118 29.2909 18.868 29.035 18.6121C28.7791 18.3561 28.6353 18.009 28.6353 17.6471V15.8824V15.4824H28.2353H26.4706C26.1086 15.4824 25.7615 15.3386 25.5056 15.0826C25.2497 14.8267 25.1059 14.4796 25.1059 14.1176C25.1059 13.7557 25.2497 13.4086 25.5056 13.1527C25.7615 12.8967 26.1086 12.7529 26.4706 12.7529H28.2353H28.6353V12.3529V10.5882C28.6353 10.2263 28.7791 9.87917 29.035 9.62324C29.2909 9.36731 29.6381 9.22353 30 9.22353C30.3619 9.22353 30.7091 9.36731 30.965 9.62324C31.2209 9.87917 31.3647 10.2263 31.3647 10.5882V12.3529ZM19.6794 15.0858L19.2069 15.4948L19.7762 15.7526C22.1765 16.8395 24.213 18.5948 25.6422 20.8085C27.0714 23.0222 27.8328 25.6007 27.8353 28.2357C27.8352 28.5975 27.6914 28.9444 27.4356 29.2003C27.1797 29.4562 26.8325 29.6 26.4706 29.6C26.1086 29.6 25.7615 29.4562 25.5056 29.2003C25.2497 28.9444 25.1059 28.5972 25.1059 28.2353C25.1059 25.321 23.9482 22.5261 21.8875 20.4654C19.8268 18.4047 17.0319 17.2471 14.1176 17.2471C11.2034 17.2471 8.40849 18.4047 6.34779 20.4654C4.2871 22.5261 3.12941 25.321 3.12941 28.2353C3.12941 28.5972 2.98563 28.9444 2.7297 29.2003C2.47377 29.4562 2.12665 29.6 1.76471 29.6C1.40276 29.6 1.05564 29.4562 0.799713 29.2003C0.543825 28.9444 0.400049 28.5974 0.4 28.2355C0.402559 25.6006 1.16393 23.0222 2.59307 20.8085C4.02226 18.5948 6.05877 16.8395 8.45912 15.7526L9.02843 15.4948L8.55591 15.0858C7.65768 14.3083 6.93723 13.3467 6.44344 12.2661C5.94966 11.1856 5.6941 10.0115 5.69412 8.82353C5.69412 6.58947 6.58159 4.44691 8.16131 2.86719C9.74103 1.28748 11.8836 0.4 14.1176 0.4C16.3517 0.4 18.4943 1.28748 20.074 2.86719C21.6537 4.44691 22.5412 6.58947 22.5412 8.82353C22.5412 10.0115 22.2856 11.1856 21.7918 12.2661C21.2981 13.3466 20.5776 14.3083 19.6794 15.0858ZM10.9542 13.558C11.8906 14.1837 12.9915 14.5176 14.1176 14.5176C15.6278 14.5176 17.0761 13.9177 18.144 12.8499C19.2119 11.782 19.8118 10.3337 19.8118 8.82353C19.8118 7.69734 19.4778 6.59644 18.8521 5.66005C18.2265 4.72365 17.3372 3.99383 16.2967 3.56285C15.2562 3.13188 14.1113 3.01911 13.0068 3.23882C11.9022 3.45853 10.8876 4.00084 10.0913 4.79718C9.29496 5.59352 8.75265 6.60811 8.53294 7.71266C8.31323 8.81721 8.42599 9.96211 8.85697 11.0026C9.28794 12.043 10.0178 12.9323 10.9542 13.558Z" stroke="black" stroke-width="0.8"/>
</svg>
