<svg width="29" height="30" viewBox="0 0 29 30" fill="none" xmlns="http://www.w3.org/2000/svg">
<path d="M19.9412 15.3882C20.8828 14.5732 21.638 13.5651 22.1557 12.4324C22.6733 11.2997 22.9412 10.0689 22.9412 8.82353C22.9412 6.48338 22.0116 4.23908 20.3568 2.58435C18.7021 0.929619 16.4578 0 14.1176 0C11.7775 0 9.5332 0.929619 7.87847 2.58435C6.22374 4.23908 5.29412 6.48338 5.29412 8.82353C5.2941 10.0689 5.562 11.2997 6.07963 12.4324C6.59726 13.5651 7.35251 14.5732 8.29412 15.3882C5.82378 16.5069 3.72788 18.3133 2.25702 20.5916C0.786168 22.8698 0.00259739 25.5235 0 28.2353C0 28.7033 0.185924 29.1522 0.51687 29.4831C0.847817 29.8141 1.29668 30 1.76471 30C2.23273 30 2.68159 29.8141 3.01254 29.4831C3.34349 29.1522 3.52941 28.7033 3.52941 28.2353C3.52941 25.4271 4.64495 22.734 6.63063 20.7483C8.61631 18.7626 11.3095 17.6471 14.1176 17.6471C16.9258 17.6471 19.619 18.7626 21.6047 20.7483C23.5903 22.734 24.7059 25.4271 24.7059 28.2353C24.7059 28.7033 24.8918 29.1522 25.2227 29.4831C25.5537 29.8141 26.0026 30 26.4706 30C26.9386 30 27.3875 29.8141 27.7184 29.4831C28.0494 29.1522 28.2353 28.7033 28.2353 28.2353C28.2327 25.5235 27.4491 22.8698 25.9783 20.5916C24.5074 18.3133 22.4115 16.5069 19.9412 15.3882ZM14.1176 14.1176C13.0706 14.1176 12.047 13.8072 11.1764 13.2254C10.3058 12.6437 9.62722 11.8169 9.22652 10.8495C8.82582 9.88213 8.72098 8.81766 8.92525 7.7907C9.12953 6.76374 9.63374 5.82042 10.3741 5.08002C11.1145 4.33963 12.0579 3.83541 13.0848 3.63114C14.1118 3.42686 15.1762 3.5317 16.1436 3.9324C17.111 4.3331 17.9378 5.01166 18.5195 5.88228C19.1013 6.75289 19.4118 7.77645 19.4118 8.82353C19.4118 10.2276 18.854 11.5742 17.8612 12.567C16.8683 13.5599 15.5217 14.1176 14.1176 14.1176Z" fill="black"/>
</svg>
