<svg width="37" height="40" viewBox="0 0 37 40" fill="none" xmlns="http://www.w3.org/2000/svg">
<path d="M32.1937 3.0625H30.2563V2.6875C30.2563 1.20625 29.05 0 27.5688 0C26.0875 0 24.8812 1.20625 24.8812 2.6875V3.0625H12.0562V2.6875C12.0562 1.20625 10.85 0 9.36875 0C7.8875 0 6.68125 1.20625 6.68125 2.6875V3.0625H4.74375C2.125 3.0625 0 5.19375 0 7.80625V35.2562C0 37.875 2.13125 40 4.74375 40H32.1937C34.8125 40 36.9375 37.8688 36.9375 35.2562V7.80625C36.9375 5.1875 34.8125 3.0625 32.1937 3.0625ZM26.425 2.6875C26.425 2.05625 26.9375 1.54375 27.5688 1.54375C28.2 1.54375 28.7125 2.05625 28.7125 2.6875V6.74375C28.7125 7.375 28.2 7.8875 27.5688 7.8875C26.9375 7.8875 26.425 7.375 26.425 6.74375V2.6875ZM8.225 2.6875C8.225 2.05625 8.7375 1.54375 9.36875 1.54375C10 1.54375 10.5125 2.05625 10.5125 2.6875V6.74375C10.5125 7.375 10 7.8875 9.36875 7.8875C8.7375 7.8875 8.225 7.375 8.225 6.74375V2.6875ZM35.3937 35.2562C35.3937 37.0187 33.9562 38.4562 32.1937 38.4562H4.74375C2.98125 38.4562 1.54375 37.0187 1.54375 35.2562V12.7875H35.4V35.2562H35.3937ZM35.3937 11.2437H1.54375V7.80625C1.54375 6.0375 2.98125 4.60625 4.74375 4.60625H6.68125V6.75C6.68125 8.23125 7.8875 9.4375 9.36875 9.4375C10.85 9.4375 12.0562 8.23125 12.0562 6.75V4.60625H24.8812V6.75C24.8812 8.23125 26.0875 9.4375 27.5688 9.4375C29.05 9.4375 30.2563 8.23125 30.2563 6.75V4.60625H32.1937C33.9625 4.60625 35.3937 6.04375 35.3937 7.80625V11.2437Z" fill="black"/>
</svg>
