<svg width="40" height="40" viewBox="0 0 40 40" fill="none" xmlns="http://www.w3.org/2000/svg">
<path d="M26.2667 13.3333V13.7333H26.6667H33.3333C34.9954 13.7333 36.5893 14.3936 37.7645 15.5688C38.9398 16.744 39.6 18.338 39.6 20C39.6 21.662 38.9398 23.256 37.7645 24.4312C36.5893 25.6064 34.9954 26.2667 33.3333 26.2667H26.6667H26.2667V26.6667V33.3333C26.2667 34.9954 25.6064 36.5893 24.4312 37.7645C23.256 38.9398 21.662 39.6 20 39.6C18.338 39.6 16.744 38.9398 15.5688 37.7645C14.3936 36.5893 13.7333 34.9954 13.7333 33.3333V26.6667V26.2667H13.3333H6.66667C5.00465 26.2667 3.41069 25.6064 2.23546 24.4312C1.06023 23.256 0.4 21.662 0.4 20C0.4 18.338 1.06023 16.744 2.23546 15.5688C3.41069 14.3936 5.00465 13.7333 6.66667 13.7333H13.3333H13.7333V13.3333V6.66666C13.7333 5.00464 14.3936 3.41069 15.5688 2.23546C16.744 1.06024 18.338 0.4 20 0.4C21.662 0.4 23.256 1.06024 24.4312 2.23546C25.6064 3.41069 26.2667 5.00464 26.2667 6.66666V13.3333Z" stroke="black" stroke-width="0.8"/>
</svg>
