<svg width="34" height="34" viewBox="0 0 34 34" fill="none" xmlns="http://www.w3.org/2000/svg">
<path d="M7.00016 26.6H6.83448L6.71732 26.7171L0.733496 32.701V3.66665C0.733496 2.05423 2.05441 0.733313 3.66683 0.733313H30.3335C31.9459 0.733313 33.2668 2.05423 33.2668 3.66665V23.6666C33.2668 25.2791 31.9459 26.6 30.3335 26.6H7.00016ZM30.3335 24.0666H30.7335V23.6666V3.66665V3.26665H30.3335H3.66683H3.26683V3.66665V25.6166V26.5823L3.94967 25.8995L5.78252 24.0666H30.3335ZM9.06683 12.4H11.6002V14.9333H9.06683V12.4ZM22.4002 12.4H24.9335V14.9333H22.4002V12.4ZM15.7335 12.4H18.2668V14.9333H15.7335V12.4Z" stroke="black" stroke-width="0.8"/>
</svg>
