<svg xmlns="http://www.w3.org/2000/svg" xmlns:xlink="http://www.w3.org/1999/xlink" version="1.1" width="1000" height="1000" viewBox="0 0 1000 1000" xml:space="preserve">
<desc>Created with Fabric.js 3.5.0</desc>
<defs>
</defs>
<rect x="0" y="0" width="100%" height="100%" fill="rgba(255,255,255,0.9)"/>
<g transform="matrix(28.0414 0 0 28.0414 644.9476 358.0157)" id="260274">
<path style="stroke: none; stroke-width: 0; stroke-dasharray: none; stroke-linecap: butt; stroke-dashoffset: 0; stroke-linejoin: miter; stroke-miterlimit: 4; is-custom-font: none; font-file-url: none; fill: rgb(0,0,0); fill-rule: nonzero; opacity: 1;" vector-effect="non-scaling-stroke" transform=" translate(-8.2964, -7.6446)" d="M 1.45499 10.4655 L 0.665986 14.0795 C 0.630273 14.2434 0.636376 14.4137 0.683734 14.5746 C 0.731092 14.7356 0.818183 14.882 0.936986 15.0005 C 1.05742 15.116 1.20393 15.2007 1.36408 15.2475 C 1.52423 15.2944 1.69331 15.3019 1.85699 15.2695 L 5.46299 14.4785 C 5.65022 14.4374 5.8217 14.3433 5.95699 14.2075 L 15.071 5.09348 C 15.3496 4.8149 15.5706 4.48416 15.7214 4.12015 C 15.8722 3.75614 15.9498 3.36599 15.9498 2.97198 C 15.9498 2.57797 15.8722 2.18782 15.7214 1.82381 C 15.5706 1.4598 15.3496 1.12906 15.071 0.850482 C 14.4998 0.304618 13.7401 0 12.95 0 C 12.1599 0 11.4002 0.304618 10.829 0.850482 L 1.72899 9.97348 C 1.59241 10.1078 1.4973 10.2786 1.45499 10.4655 Z M 12.243 2.26548 C 12.4332 2.08322 12.6865 1.98148 12.95 1.98148 C 13.2135 1.98148 13.4667 2.08322 13.657 2.26548 C 13.842 2.45411 13.9456 2.70778 13.9456 2.97198 C 13.9456 3.23619 13.842 3.48985 13.657 3.67848 L 12.95 4.38548 L 11.536 2.97148 L 12.243 2.26548 Z M 3.34299 11.1795 L 10.117 4.38848 L 11.517 5.79548 L 4.73999 12.5885 L 2.94499 12.9825 L 3.34299 11.1795 Z" stroke-linecap="round"/>
</g>
<g transform="matrix(26.6215 0 0 26.6215 499.9996 499.9996)" id="278669">
<path style="stroke: none; stroke-width: 0; stroke-dasharray: none; stroke-linecap: butt; stroke-dashoffset: 0; stroke-linejoin: miter; stroke-miterlimit: 4; is-custom-font: none; font-file-url: none; fill: rgb(0,0,0); fill-rule: nonzero; opacity: 1;" vector-effect="non-scaling-stroke" transform=" translate(-11, -11.9215)" d="M 3.5 22.9215 H 18.5 C 19.4297 22.9188 20.3204 22.5474 20.9765 21.8888 C 21.6327 21.2302 22.0008 20.3382 22 19.4085 V 11.8715 C 22 11.6063 21.8946 11.3519 21.7071 11.1644 C 21.5196 10.9768 21.2652 10.8715 21 10.8715 C 20.7348 10.8715 20.4804 10.9768 20.2929 11.1644 C 20.1054 11.3519 20 11.6063 20 11.8715 V 19.4085 C 20.0013 19.8079 19.8441 20.1915 19.5629 20.4752 C 19.2817 20.7589 18.8994 20.9194 18.5 20.9215 H 3.5 C 3.10057 20.9194 2.7183 20.7589 2.43708 20.4752 C 2.15587 20.1915 1.99867 19.8079 2 19.4085 V 4.43448 C 1.99867 4.03505 2.15587 3.65141 2.43708 3.36775 C 2.7183 3.08409 3.10057 2.92359 3.5 2.92148 H 11 C 11.2652 2.92148 11.5196 2.81612 11.7071 2.62859 C 11.8946 2.44105 12 2.18669 12 1.92148 C 12 1.65626 11.8946 1.40191 11.7071 1.21437 C 11.5196 1.02684 11.2652 0.921478 11 0.921478 H 3.5 C 2.57031 0.924127 1.67964 1.29551 1.02346 1.95412 C 0.367281 2.61274 -0.000797091 3.50478 0.00000129611 4.43448 V 19.4085 C -0.000797091 20.3382 0.367281 21.2302 1.02346 21.8888 C 1.67964 22.5474 2.57031 22.9188 3.5 22.9215 Z" stroke-linecap="round"/>
</g>
</svg>