<svg width="61" height="82" viewBox="0 0 61 82" fill="none" xmlns="http://www.w3.org/2000/svg">
<path fill-rule="evenodd" clip-rule="evenodd" d="M5.35321 19.5108C-1.5749 40.3422 -0.140176 42.4683 0.801564 46.4635C1.51608 49.4938 2.58917 51.5371 4.65006 53.7929C6.49013 55.8064 10.8532 57.8448 11.3883 57.8448C14.8532 57.5108 16.262 54.5108 14.3532 53.7929C13.8532 53.5108 11.3553 53.019 10.3532 52.5108C8.24439 51.4423 6.19304 49.9758 5.35321 47.5108C4.20085 44.1272 2.72001 40.1608 8.85321 22.0108L13.6885 7.5108C13.6885 7.5108 15.0357 4.5108 15.9445 4.5108C16.8532 4.5108 21.8532 5.0108 21.8532 5.0108C27.3532 5.81358 30.4992 10.2564 30.5033 16.2149C30.5048 18.3922 29.4701 20.9683 23.4388 39.0567C19.7002 50.27 16.4707 60.5065 16.262 61.8042C15.495 66.5772 17.2264 71.9475 20.5072 74.9728C21.4206 75.8147 23.3429 77.0825 24.7795 77.7905L27.3915 79.0771C33.5078 81.9881 50.3216 82.9512 56.9157 79.3056C58.3532 78.5108 58.8532 76.0108 58.8532 76.0108C58.8532 76.0108 59.8532 71.8029 60.3532 68.5108C60.8922 64.9622 59.6801 63.5108 58.8532 61.8042C57.5703 59.156 54.0169 56.6668 51.5831 55.4881C48.2283 53.8639 46.3373 53.6015 37.9397 53.597L29.9744 53.5924L28.5159 53.7929C24.7795 56.0108 28.4325 58.7056 28.5159 58.7894C28.5997 58.8729 31.782 58.9272 35.5878 58.9103C39.3937 58.8933 43.5664 59.0356 44.8607 59.2266C51.8194 60.2543 55.2175 65.4721 53.3012 72.1868L52.7894 73.9802H41.9716C30.068 73.9802 27.8342 73.6876 25.3483 71.8029C23.472 70.3803 22.8085 69.5085 22.1408 67.589C20.9322 64.1144 21.8004 63.3841 29.3532 41.0108L32.8532 31.0108L35.8532 20.5108C35.8532 20.5108 36.3532 19.419 36.8532 16.2149C37.3532 13.0108 35.2415 8.13088 32.3532 5.0108C28.8607 1.2368 24.4183 0.0179797 17.8532 0.0108063C17.8532 0.0108063 15.1955 -0.0953447 13.6885 0.357746C9.85324 1.51081 5.35321 19.5108 5.35321 19.5108Z" fill="url(#paint0_linear_3_35)"/>
<defs>
<linearGradient id="paint0_linear_3_35" x1="-19.6468" y1="-35.4892" x2="57.3532" y2="91.0108" gradientUnits="userSpaceOnUse">
<stop stop-color="#FF7E00"/>
<stop offset="1" stop-color="#FF7E00" stop-opacity="0.427083"/>
</linearGradient>
</defs>
</svg>