<svg width="40" height="40" viewBox="0 0 40 40" fill="none" xmlns="http://www.w3.org/2000/svg">
<mask id="path-1-inside-1_1_64" fill="white">
<path d="M29.6538 13.9083C27.9854 13.9076 26.3427 14.3203 24.8727 15.1095C24.7385 14.7562 24.5001 14.4521 24.189 14.2375C23.8779 14.023 23.5088 13.9081 23.1309 13.9083H15.6762C15.4314 13.9082 15.189 13.9563 14.9628 14.0499C14.7366 14.1435 14.5311 14.2808 14.358 14.4539C14.1849 14.627 14.0477 14.8325 13.954 15.0586C13.8604 15.2848 13.8123 15.5272 13.8125 15.772V38.1363C13.8123 38.3811 13.8604 38.6235 13.954 38.8497C14.0477 39.0759 14.1849 39.2814 14.358 39.4545C14.5311 39.6275 14.7366 39.7648 14.9628 39.8584C15.189 39.952 15.4314 40.0001 15.6762 40H23.1309C23.3757 40.0001 23.6181 39.952 23.8443 39.8584C24.0705 39.7648 24.276 39.6275 24.4491 39.4545C24.6222 39.2814 24.7594 39.0759 24.853 38.8497C24.9467 38.6235 24.9948 38.3811 24.9946 38.1363V27.886C24.9946 27.3917 25.191 26.9177 25.5405 26.5682C25.89 26.2187 26.364 26.0223 26.8583 26.0223C27.3526 26.0223 27.8266 26.2187 28.1761 26.5682C28.5257 26.9177 28.722 27.3917 28.722 27.886V38.1363C28.7219 38.3811 28.77 38.6235 28.8636 38.8497C28.9572 39.0759 29.0945 39.2814 29.2675 39.4545C29.4406 39.6275 29.6461 39.7648 29.8723 39.8584C30.0985 39.952 30.3409 40.0001 30.5857 40H38.0405C38.2852 40.0001 38.5277 39.952 38.7538 39.8584C38.98 39.7648 39.1855 39.6275 39.3586 39.4545C39.5317 39.2814 39.669 39.0759 39.7626 38.8497C39.8562 38.6235 39.9043 38.3811 39.9042 38.1363V24.1586C39.9008 21.4411 38.8198 18.8359 36.8982 16.9143C34.9766 14.9927 32.3714 13.9117 29.6538 13.9083ZM36.1768 36.2726H32.4494V27.886C32.4494 26.4032 31.8603 24.981 30.8118 23.9325C29.7633 22.884 28.3412 22.2949 26.8583 22.2949C25.3755 22.2949 23.9534 22.884 22.9048 23.9325C21.8563 24.981 21.2672 26.4032 21.2672 27.886V36.2726H17.5399V17.6357H21.2672V18.9461C21.2675 19.3323 21.3876 19.7088 21.611 20.0238C21.8344 20.3388 22.1501 20.5766 22.5145 20.7044C22.8789 20.8323 23.2739 20.8439 23.6452 20.7376C24.0164 20.6312 24.3455 20.4123 24.5869 20.1109C25.4233 19.0487 26.5705 18.2741 27.8684 17.8954C29.1663 17.5167 30.55 17.5528 31.8264 17.9986C33.1028 18.4443 34.2081 19.2776 34.988 20.3819C35.768 21.4863 36.1835 22.8066 36.1768 24.1586V36.2726ZM10.0851 13.9083H2.63032C2.38553 13.9082 2.14313 13.9563 1.91695 14.0499C1.69077 14.1435 1.48526 14.2808 1.31218 14.4539C1.13909 14.627 1.00182 14.8325 0.908206 15.0586C0.814596 15.2848 0.766486 15.5272 0.766626 15.772V38.1363C0.766483 38.3811 0.814592 38.6235 0.908201 38.8497C1.00181 39.0759 1.13908 39.2814 1.31217 39.4545C1.48526 39.6275 1.69077 39.7648 1.91695 39.8584C2.14312 39.952 2.38553 40.0001 2.63032 40H10.0851C10.3299 40.0001 10.5723 39.952 10.7985 39.8584C11.0246 39.7648 11.2301 39.6275 11.4032 39.4545C11.5763 39.2814 11.7136 39.0759 11.8072 38.8497C11.9008 38.6235 11.9489 38.3811 11.9488 38.1363V15.772C11.9489 15.5272 11.9008 15.2848 11.8072 15.0586C11.7136 14.8325 11.5763 14.627 11.4032 14.4539C11.2301 14.2808 11.0246 14.1435 10.7985 14.0499C10.5723 13.9563 10.3299 13.9082 10.0851 13.9083ZM8.22139 36.2726H4.49401V17.6357H8.22139V36.2726ZM6.385 0.0107655C5.56938 -0.0380568 4.75235 0.0795306 3.98359 0.356377C3.21484 0.633224 2.51043 1.06354 1.9132 1.62117C1.31597 2.17879 0.838406 2.85207 0.509545 3.60005C0.180684 4.34803 0.00740024 5.15509 0.000231889 5.97214C-0.00693646 6.78919 0.15216 7.59917 0.467847 8.3528C0.783534 9.10644 1.24921 9.78799 1.83657 10.356C2.42392 10.924 3.12067 11.3666 3.88445 11.6569C4.64823 11.9472 5.46307 12.0791 6.27943 12.0446H6.33221C7.14999 12.0932 7.96909 11.9745 8.73945 11.6958C9.50982 11.4172 10.2153 10.9843 10.8127 10.4238C11.4101 9.86325 11.887 9.18679 12.2142 8.43573C12.5413 7.68467 12.7119 6.87479 12.7155 6.05558C12.7191 5.23636 12.5556 4.42501 12.2351 3.67111C11.9145 2.91721 11.4436 2.23659 10.8511 1.67084C10.2586 1.10509 9.55697 0.666085 8.78908 0.380656C8.02119 0.095227 7.20316 -0.0306333 6.38499 0.0107655H6.385ZM6.33222 8.31724H6.27943C5.95713 8.35638 5.63019 8.32615 5.32054 8.22858C5.01088 8.13101 4.72567 7.96837 4.48403 7.75154C4.24238 7.53472 4.04989 7.26873 3.91946 6.97142C3.78903 6.67411 3.72368 6.35235 3.72779 6.02771C3.72779 4.63721 4.77066 3.73813 6.385 3.73813C6.71059 3.69473 7.04169 3.7216 7.35602 3.81694C7.67034 3.91227 7.96059 4.07386 8.2072 4.29081C8.45382 4.50777 8.65108 4.77505 8.7857 5.07466C8.92032 5.37427 8.98917 5.69925 8.98761 6.02771C8.98761 7.4182 7.94475 8.31724 6.33222 8.31724Z"/>
</mask>
<path d="M29.6538 13.9083C27.9854 13.9076 26.3427 14.3203 24.8727 15.1095C24.7385 14.7562 24.5001 14.4521 24.189 14.2375C23.8779 14.023 23.5088 13.9081 23.1309 13.9083H15.6762C15.4314 13.9082 15.189 13.9563 14.9628 14.0499C14.7366 14.1435 14.5311 14.2808 14.358 14.4539C14.1849 14.627 14.0477 14.8325 13.954 15.0586C13.8604 15.2848 13.8123 15.5272 13.8125 15.772V38.1363C13.8123 38.3811 13.8604 38.6235 13.954 38.8497C14.0477 39.0759 14.1849 39.2814 14.358 39.4545C14.5311 39.6275 14.7366 39.7648 14.9628 39.8584C15.189 39.952 15.4314 40.0001 15.6762 40H23.1309C23.3757 40.0001 23.6181 39.952 23.8443 39.8584C24.0705 39.7648 24.276 39.6275 24.4491 39.4545C24.6222 39.2814 24.7594 39.0759 24.853 38.8497C24.9467 38.6235 24.9948 38.3811 24.9946 38.1363V27.886C24.9946 27.3917 25.191 26.9177 25.5405 26.5682C25.89 26.2187 26.364 26.0223 26.8583 26.0223C27.3526 26.0223 27.8266 26.2187 28.1761 26.5682C28.5257 26.9177 28.722 27.3917 28.722 27.886V38.1363C28.7219 38.3811 28.77 38.6235 28.8636 38.8497C28.9572 39.0759 29.0945 39.2814 29.2675 39.4545C29.4406 39.6275 29.6461 39.7648 29.8723 39.8584C30.0985 39.952 30.3409 40.0001 30.5857 40H38.0405C38.2852 40.0001 38.5277 39.952 38.7538 39.8584C38.98 39.7648 39.1855 39.6275 39.3586 39.4545C39.5317 39.2814 39.669 39.0759 39.7626 38.8497C39.8562 38.6235 39.9043 38.3811 39.9042 38.1363V24.1586C39.9008 21.4411 38.8198 18.8359 36.8982 16.9143C34.9766 14.9927 32.3714 13.9117 29.6538 13.9083ZM36.1768 36.2726H32.4494V27.886C32.4494 26.4032 31.8603 24.981 30.8118 23.9325C29.7633 22.884 28.3412 22.2949 26.8583 22.2949C25.3755 22.2949 23.9534 22.884 22.9048 23.9325C21.8563 24.981 21.2672 26.4032 21.2672 27.886V36.2726H17.5399V17.6357H21.2672V18.9461C21.2675 19.3323 21.3876 19.7088 21.611 20.0238C21.8344 20.3388 22.1501 20.5766 22.5145 20.7044C22.8789 20.8323 23.2739 20.8439 23.6452 20.7376C24.0164 20.6312 24.3455 20.4123 24.5869 20.1109C25.4233 19.0487 26.5705 18.2741 27.8684 17.8954C29.1663 17.5167 30.55 17.5528 31.8264 17.9986C33.1028 18.4443 34.2081 19.2776 34.988 20.3819C35.768 21.4863 36.1835 22.8066 36.1768 24.1586V36.2726ZM10.0851 13.9083H2.63032C2.38553 13.9082 2.14313 13.9563 1.91695 14.0499C1.69077 14.1435 1.48526 14.2808 1.31218 14.4539C1.13909 14.627 1.00182 14.8325 0.908206 15.0586C0.814596 15.2848 0.766486 15.5272 0.766626 15.772V38.1363C0.766483 38.3811 0.814592 38.6235 0.908201 38.8497C1.00181 39.0759 1.13908 39.2814 1.31217 39.4545C1.48526 39.6275 1.69077 39.7648 1.91695 39.8584C2.14312 39.952 2.38553 40.0001 2.63032 40H10.0851C10.3299 40.0001 10.5723 39.952 10.7985 39.8584C11.0246 39.7648 11.2301 39.6275 11.4032 39.4545C11.5763 39.2814 11.7136 39.0759 11.8072 38.8497C11.9008 38.6235 11.9489 38.3811 11.9488 38.1363V15.772C11.9489 15.5272 11.9008 15.2848 11.8072 15.0586C11.7136 14.8325 11.5763 14.627 11.4032 14.4539C11.2301 14.2808 11.0246 14.1435 10.7985 14.0499C10.5723 13.9563 10.3299 13.9082 10.0851 13.9083ZM8.22139 36.2726H4.49401V17.6357H8.22139V36.2726ZM6.385 0.0107655C5.56938 -0.0380568 4.75235 0.0795306 3.98359 0.356377C3.21484 0.633224 2.51043 1.06354 1.9132 1.62117C1.31597 2.17879 0.838406 2.85207 0.509545 3.60005C0.180684 4.34803 0.00740024 5.15509 0.000231889 5.97214C-0.00693646 6.78919 0.15216 7.59917 0.467847 8.3528C0.783534 9.10644 1.24921 9.78799 1.83657 10.356C2.42392 10.924 3.12067 11.3666 3.88445 11.6569C4.64823 11.9472 5.46307 12.0791 6.27943 12.0446H6.33221C7.14999 12.0932 7.96909 11.9745 8.73945 11.6958C9.50982 11.4172 10.2153 10.9843 10.8127 10.4238C11.4101 9.86325 11.887 9.18679 12.2142 8.43573C12.5413 7.68467 12.7119 6.87479 12.7155 6.05558C12.7191 5.23636 12.5556 4.42501 12.2351 3.67111C11.9145 2.91721 11.4436 2.23659 10.8511 1.67084C10.2586 1.10509 9.55697 0.666085 8.78908 0.380656C8.02119 0.095227 7.20316 -0.0306333 6.38499 0.0107655H6.385ZM6.33222 8.31724H6.27943C5.95713 8.35638 5.63019 8.32615 5.32054 8.22858C5.01088 8.13101 4.72567 7.96837 4.48403 7.75154C4.24238 7.53472 4.04989 7.26873 3.91946 6.97142C3.78903 6.67411 3.72368 6.35235 3.72779 6.02771C3.72779 4.63721 4.77066 3.73813 6.385 3.73813C6.71059 3.69473 7.04169 3.7216 7.35602 3.81694C7.67034 3.91227 7.96059 4.07386 8.2072 4.29081C8.45382 4.50777 8.65108 4.77505 8.7857 5.07466C8.92032 5.37427 8.98917 5.69925 8.98761 6.02771C8.98761 7.4182 7.94475 8.31724 6.33222 8.31724Z" stroke="black" stroke-width="1.6" mask="url(#path-1-inside-1_1_64)"/>
</svg>
