<svg width="22" height="23" viewBox="0 0 22 23" fill="none" xmlns="http://www.w3.org/2000/svg">
<path d="M3.5 22.9215H18.5C19.4297 22.9188 20.3204 22.5474 20.9765 21.8888C21.6327 21.2302 22.0008 20.3382 22 19.4085V11.8715C22 11.6063 21.8946 11.3519 21.7071 11.1644C21.5196 10.9768 21.2652 10.8715 21 10.8715C20.7348 10.8715 20.4804 10.9768 20.2929 11.1644C20.1054 11.3519 20 11.6063 20 11.8715V19.4085C20.0013 19.8079 19.8441 20.1915 19.5629 20.4752C19.2817 20.7589 18.8994 20.9194 18.5 20.9215H3.5C3.10057 20.9194 2.7183 20.7589 2.43708 20.4752C2.15587 20.1915 1.99867 19.8079 2 19.4085V4.43448C1.99867 4.03505 2.15587 3.65141 2.43708 3.36775C2.7183 3.08409 3.10057 2.92359 3.5 2.92148H11C11.2652 2.92148 11.5196 2.81612 11.7071 2.62859C11.8946 2.44105 12 2.18669 12 1.92148C12 1.65626 11.8946 1.40191 11.7071 1.21437C11.5196 1.02684 11.2652 0.921478 11 0.921478H3.5C2.57031 0.924127 1.67964 1.29551 1.02346 1.95412C0.367281 2.61274 -0.000797091 3.50478 1.29611e-06 4.43448V19.4085C-0.000797091 20.3382 0.367281 21.2302 1.02346 21.8888C1.67964 22.5474 2.57031 22.9188 3.5 22.9215Z" fill="black"/>
</svg>
