<svg width="16" height="16" viewBox="0 0 16 16" fill="none" xmlns="http://www.w3.org/2000/svg">
<path d="M1.45499 10.4655L0.665986 14.0795C0.630273 14.2434 0.636376 14.4137 0.683734 14.5746C0.731092 14.7356 0.818183 14.882 0.936986 15.0005C1.05742 15.116 1.20393 15.2007 1.36408 15.2475C1.52423 15.2944 1.69331 15.3019 1.85699 15.2695L5.46299 14.4785C5.65022 14.4374 5.8217 14.3433 5.95699 14.2075L15.071 5.09348C15.3496 4.8149 15.5706 4.48416 15.7214 4.12015C15.8722 3.75614 15.9498 3.36599 15.9498 2.97198C15.9498 2.57797 15.8722 2.18782 15.7214 1.82381C15.5706 1.4598 15.3496 1.12906 15.071 0.850482C14.4998 0.304618 13.7401 0 12.95 0C12.1599 0 11.4002 0.304618 10.829 0.850482L1.72899 9.97348C1.59241 10.1078 1.4973 10.2786 1.45499 10.4655ZM12.243 2.26548C12.4332 2.08322 12.6865 1.98148 12.95 1.98148C13.2135 1.98148 13.4667 2.08322 13.657 2.26548C13.842 2.45411 13.9456 2.70778 13.9456 2.97198C13.9456 3.23619 13.842 3.48985 13.657 3.67848L12.95 4.38548L11.536 2.97148L12.243 2.26548ZM3.34299 11.1795L10.117 4.38848L11.517 5.79548L4.73999 12.5885L2.94499 12.9825L3.34299 11.1795Z" fill="black"/>
</svg>
