<svg width="41" height="40" viewBox="0 0 41 40" fill="none" xmlns="http://www.w3.org/2000/svg">
<path d="M38.1787 29.0227C36.5196 27.3182 31.8037 24.125 28.7128 24.125C27.9969 24.125 27.3719 24.2841 26.8605 24.6136C25.3492 25.5795 24.1446 26.3295 23.5651 26.3295C23.2469 26.3295 22.906 26.0455 22.156 25.3977L22.031 25.2841C19.9514 23.4773 19.5083 23.0114 18.7015 22.1705L18.4969 21.9545C18.3492 21.8068 18.2242 21.6705 18.0992 21.5455C17.3946 20.8182 16.8833 20.2955 15.0765 18.25L14.9969 18.1591C14.1333 17.1818 13.5651 16.5455 13.531 16.0795C13.4969 15.625 13.8946 14.8864 14.906 13.5114C16.1333 11.8523 16.1787 9.80682 15.0537 7.43182C14.156 5.55682 12.6901 3.76136 11.3946 2.18182L11.281 2.04545C10.1674 0.681818 8.8719 0 7.42872 0C5.82645 0 4.4969 0.863636 3.79236 1.31818C3.73554 1.35227 3.67872 1.39773 3.6219 1.43182C2.04236 2.43182 0.89463 3.80682 0.462812 5.20455C-0.184915 7.30682 -0.616733 10.0341 2.48554 15.7045C5.16736 20.6136 7.59918 23.9091 11.4628 27.875C15.0992 31.6023 16.7128 32.8068 20.3264 35.4205C24.3492 38.3295 28.2128 40 30.9174 40C33.4287 40 35.406 40 38.2242 36.6023C41.1787 33.0341 39.9515 30.8523 38.1787 29.0227ZM36.8719 35.375C34.5992 38.125 33.2924 38.125 30.9287 38.125C28.6219 38.125 25.0424 36.5341 21.3605 33.8864C17.8378 31.3409 16.2696 30.1705 12.7355 26.5455C8.9969 22.7159 6.64463 19.5227 4.05372 14.7841C1.31508 9.77273 1.6219 7.57955 2.17872 5.77273C2.47418 4.80682 3.36054 3.77273 4.56508 3.02273C4.6219 2.98864 4.67872 2.94318 4.7469 2.90909C5.34918 2.52273 6.34917 1.875 7.44008 1.875C8.34918 1.875 9.15599 2.32955 9.92872 3.27273L10.0424 3.40909C12.9401 6.95455 15.2014 10.0909 13.4969 12.4091C12.2924 14.0341 11.656 15.1364 11.7583 16.2727C11.8492 17.375 12.5878 18.2045 13.7014 19.4545L13.781 19.5455C15.6105 21.6136 16.1333 22.1591 16.8605 22.8977C16.9855 23.0227 17.1105 23.1591 17.2583 23.3068L17.4628 23.5227C18.3037 24.3977 18.7696 24.875 20.906 26.75L21.031 26.8636C21.9401 27.6591 22.6105 28.2386 23.5878 28.2386C24.5992 28.2386 25.7128 27.6023 27.8264 26.25C28.0424 26.1136 28.3492 26.0341 28.7355 26.0341C31.2014 26.0341 35.4515 28.8523 36.9401 30.3864C38.3037 31.7727 38.9855 32.8182 36.8719 35.375Z" fill="black"/>
</svg>
