<svg width="36" height="30" viewBox="0 0 36 30" fill="none" xmlns="http://www.w3.org/2000/svg">
<path d="M20.2651 1.30092V8.08575V1.30092ZM20.2651 1.30092C20.2648 1.0425 20.3416 0.78989 20.4857 0.575338C20.6297 0.360786 20.8344 0.194035 21.0737 0.0963819C21.3129 -0.00127093 21.5758 -0.0253925 21.8289 0.0270978C22.0819 0.0795881 22.3135 0.206308 22.4942 0.391072L20.2651 1.30092ZM1.30139 29.6L1.29924 29.6C1.2064 29.6005 1.11413 29.5856 1.02616 29.5559L1.02192 29.5545C0.834006 29.4935 0.671395 29.3724 0.559189 29.2097C0.446983 29.0471 0.39142 28.8521 0.401076 28.6548L0.401554 28.645V28.6352C0.401554 28.6358 0.40172 28.6335 0.40209 28.6283C0.40548 28.5812 0.425991 28.2962 0.492348 27.8113C0.564466 27.2843 0.688596 26.5374 0.896134 25.6407C1.31151 23.846 2.05925 21.4589 3.38732 19.0352C6.03611 14.2014 10.994 9.21287 20.2963 8.48453L20.6651 8.45565V8.08575V1.30092V1.30057C20.6649 1.12168 20.7181 0.946804 20.8178 0.798281C20.9175 0.649756 21.0592 0.534322 21.2248 0.466721C21.3904 0.39912 21.5725 0.382422 21.7476 0.418759C21.9228 0.455095 22.0831 0.542817 22.2082 0.670722L22.2084 0.670922L35.0372 13.7727L35.0373 13.7728C35.2022 13.941 35.2945 14.1671 35.2945 14.4027C35.2945 14.6382 35.2022 14.8643 35.0373 15.0325L35.0372 15.0327L22.2084 28.1344L22.2082 28.1346C22.0831 28.2625 21.9228 28.3502 21.7476 28.3866C21.5725 28.4229 21.3904 28.4062 21.2248 28.3386C21.0592 28.271 20.9175 28.1556 20.8178 28.007C20.7181 27.8585 20.6649 27.6836 20.6651 27.5048V27.5044V20.8496V20.434L20.2499 20.4498C7.73453 20.9263 2.39588 28.6495 2.06204 29.1818L2.0617 29.1816C1.98053 29.3098 1.86825 29.4154 1.73532 29.4885C1.60239 29.5617 1.45312 29.6 1.30139 29.6ZM23.1503 4.20534L22.4646 3.50597V4.48537V9.30104V9.30128C22.4648 9.53456 22.3743 9.75878 22.2123 9.92664C22.0503 10.0945 21.8295 10.1929 21.5963 10.2011L21.5957 10.2011C15.3777 10.4288 11.1265 12.6183 8.23102 15.4404C5.34387 18.2544 3.82838 21.6737 3.03032 24.335L2.63588 25.6504L3.67498 24.7526C6.8646 21.9968 12.5652 18.611 21.4869 18.611H21.5453C21.784 18.611 22.0128 18.7058 22.1816 18.8745C22.3503 19.0433 22.4451 19.2721 22.4451 19.5108V24.3265V25.304L23.1304 24.6069L32.8787 14.6896L33.154 14.4095L32.8791 14.1291L23.1503 4.20534Z" stroke="#878787" stroke-width="0.8"/>
</svg>
